<svg xmlns="http://www.w3.org/2000/svg" viewBox="0 0 254.7 108.5"><path class="logo-letter" d="M54.2 40.2L49.7 43c-3.9-5.2-9.2-7.7-15.9-7.7-5.4 0-9.8 1.7-13.4 5.2-3.5 3.5-5.3 7.6-5.3 12.6 0 3.2.8 6.2 2.4 9.1 1.6 2.8 3.9 5 6.7 6.6 2.8 1.6 6 2.3 9.6 2.3 6.5 0 11.8-2.6 15.9-7.7l4.5 3c-2.1 3.2-4.9 5.6-8.5 7.4-3.6 1.7-7.6 2.6-12.1 2.6-7 0-12.8-2.2-17.3-6.6-4.6-4.4-6.9-9.8-6.9-16.2 0-4.3 1.1-8.2 3.2-11.9 2.1-3.7 5.1-6.5 8.9-8.6 3.8-2.1 8-3.1 12.6-3.1 2.9 0 5.7.4 8.4 1.3s5 2.1 6.9 3.5c1.9 1.4 3.5 3.2 4.8 5.4zM64.3 14H70v61.1h-5.7V14z" fill="#fff"/><path class="logo-letter scrolling-visible" d="M111.1 14c9 0 16.6 3 22.7 9 6.1 6 9.1 13.4 9.1 22.2 0 8.7-3 16.1-9.1 22.2-6.1 6.1-13.5 9.1-22.2 9.1-8.8 0-16.3-3-22.4-9.1-6.1-6.1-9.1-13.4-9.1-22 0-5.7 1.4-11 4.2-15.9 2.8-4.9 6.5-8.7 11.3-11.5 4.7-2.6 9.9-4 15.5-4zm.2 5.8c-4.4 0-8.6 1.1-12.5 3.4-4 2.3-7 5.4-9.3 9.3-2.2 3.9-3.3 8.2-3.3 13 0 7.1 2.5 13.1 7.4 17.9 4.9 4.9 10.8 7.3 17.8 7.3 4.6 0 8.9-1.1 12.8-3.4 3.9-2.2 7-5.3 9.2-9.2 2.2-3.9 3.3-8.2 3.3-13 0-4.7-1.1-9-3.3-12.8-2.2-3.8-5.3-6.9-9.3-9.2-4-2.1-8.3-3.3-12.8-3.3z" fill="#fff"/><path class="logo-letter" d="M196.7 40.2l-4.5 2.8c-3.9-5.2-9.2-7.7-15.9-7.7-5.4 0-9.8 1.7-13.4 5.2-3.5 3.5-5.3 7.6-5.3 12.6 0 3.2.8 6.2 2.4 9.1 1.6 2.8 3.9 5 6.7 6.6 2.8 1.6 6 2.3 9.6 2.3 6.5 0 11.8-2.6 15.9-7.7l4.5 3c-2.1 3.2-4.9 5.6-8.5 7.4-3.6 1.7-7.6 2.6-12.1 2.6-7 0-12.8-2.2-17.3-6.6-4.6-4.4-6.9-9.8-6.9-16.2 0-4.3 1.1-8.2 3.2-11.9 2.1-3.7 5.1-6.5 8.9-8.6 3.8-2.1 8-3.1 12.6-3.1 2.9 0 5.7.4 8.4 1.3s5 2.1 6.9 3.5c1.8 1.4 3.4 3.2 4.8 5.4zM207.5 14h5.7v34.8L233.6 31h8.3l-24.2 21 25.6 23.1h-8l-22.2-19.8v19.8h-5.7V14zM19 95.6l-1 .6c-.8-1.1-2-1.7-3.5-1.7-1.2 0-2.1.4-2.9 1.1-.8.8-1.2 1.7-1.2 2.7 0 .7.2 1.4.5 2 .4.6.8 1.1 1.5 1.4.6.3 1.3.5 2.1.5 1.4 0 2.6-.6 3.5-1.7l1 .6c-.5.7-1.1 1.2-1.9 1.6-.8.4-1.7.6-2.6.6-1.5 0-2.8-.5-3.8-1.5s-1.5-2.1-1.5-3.5c0-.9.2-1.8.7-2.6.5-.8 1.1-1.4 1.9-1.9.8-.4 1.7-.7 2.8-.7.6 0 1.3.1 1.8.3.6.2 1.1.4 1.5.8.4.5.8.9 1.1 1.4zm13.7-2H34V95c.4-.6.8-1 1.2-1.2.4-.3.9-.4 1.3-.4.3 0 .7.1 1.1.3l-.6 1c-.3-.1-.5-.2-.7-.2-.4 0-.8.2-1.2.5-.4.3-.7.9-.9 1.6-.2.5-.2 1.7-.2 3.3v3.3h-1.3v-9.6zm25.8 6.4l1 .5c-.3.7-.7 1.2-1.2 1.6-.4.4-1 .7-1.5.9-.6.2-1.2.3-1.9.3-1.6 0-2.8-.5-3.7-1.5-.9-1-1.3-2.2-1.3-3.5 0-1.2.4-2.3 1.1-3.3 1-1.2 2.2-1.8 3.8-1.8 1.6 0 3 .6 3.9 1.9.7.9 1.1 2 1.1 3.3h-8.7c0 1.1.4 2 1.1 2.7.7.7 1.5 1.1 2.6 1.1.5 0 1-.1 1.4-.3.5-.2.9-.4 1.2-.7.3-.1.7-.6 1.1-1.2zm0-2.6c-.2-.7-.4-1.2-.7-1.6-.3-.4-.7-.7-1.3-1-.5-.2-1.1-.4-1.6-.4-.9 0-1.8.3-2.4.9-.5.4-.9 1.1-1.1 2h7.1zm25-3.8v9.6h-1.2v-1.7c-.5.6-1.1 1.1-1.7 1.4-.6.3-1.4.5-2.1.5-1.4 0-2.5-.5-3.5-1.5s-1.4-2.2-1.4-3.6.5-2.6 1.5-3.6 2.1-1.5 3.5-1.5c.8 0 1.5.2 2.1.5.6.3 1.2.8 1.7 1.5v-1.8h1.1zm-4.9.9c-.7 0-1.3.2-1.9.5-.6.3-1 .8-1.4 1.4-.3.6-.5 1.3-.5 1.9 0 .7.2 1.3.5 1.9.3.6.8 1.1 1.4 1.4.6.3 1.2.5 1.9.5s1.3-.2 1.9-.5c.6-.3 1.1-.8 1.4-1.4.3-.6.5-1.2.5-2 0-1.1-.4-2-1.1-2.8-.8-.5-1.7-.9-2.7-.9zM99.2 90h1.2v3.6h2v1.1h-2v8.6h-1.2v-8.6h-1.7v-1.1h1.7V90zm17.2-.4c.3 0 .5.1.7.3.2.2.3.4.3.7 0 .3-.1.5-.3.7-.2.2-.4.3-.7.3-.3 0-.5-.1-.7-.3-.2-.2-.3-.4-.3-.7 0-.3.1-.5.3-.7.2-.2.4-.3.7-.3zm-.6 4h1.2v9.6h-1.2v-9.6zm14.7 0h1.3l3.2 7 3.2-7h1.3l-4.4 9.6h-.2l-4.4-9.6zm30.8 6.4l1 .5c-.3.7-.7 1.2-1.2 1.6-.4.4-1 .7-1.5.9-.6.2-1.2.3-1.9.3-1.6 0-2.8-.5-3.7-1.5-.9-1-1.3-2.2-1.3-3.5 0-1.2.4-2.3 1.1-3.3.9-1.2 2.2-1.8 3.8-1.8 1.6 0 3 .6 3.9 1.9.7.9 1.1 2 1.1 3.3H154c0 1.1.4 2 1.1 2.7.7.7 1.5 1.1 2.6 1.1.5 0 1-.1 1.4-.3.5-.2.9-.4 1.2-.7.3-.1.6-.6 1-1.2zm0-2.6c-.2-.7-.4-1.2-.7-1.6-.3-.4-.7-.7-1.3-1-.5-.2-1.1-.4-1.6-.4-.9 0-1.8.3-2.4.9-.5.4-.9 1.1-1.1 2h7.1zm32.1-7.6h1.2v13.3h-1.2V89.8zm25.2 3.8v9.6h-1.2v-1.7c-.5.6-1.1 1.1-1.7 1.4-.6.3-1.4.5-2.1.5-1.4 0-2.5-.5-3.5-1.5s-1.4-2.2-1.4-3.6.5-2.6 1.5-3.6 2.1-1.5 3.5-1.5c.8 0 1.5.2 2.1.5.6.3 1.2.8 1.7 1.5v-1.8h1.1zm-5 .9c-.7 0-1.3.2-1.9.5-.6.3-1 .8-1.4 1.4-.3.6-.5 1.3-.5 1.9 0 .7.2 1.3.5 1.9.3.6.8 1.1 1.4 1.4.6.3 1.2.5 1.9.5s1.3-.2 1.9-.5c.6-.3 1.1-.8 1.4-1.4.3-.6.5-1.2.5-2 0-1.1-.4-2-1.1-2.8-.7-.5-1.6-.9-2.7-.9zm19.6 8.7V89.8h1.2v5.4c.5-.6 1.1-1.1 1.7-1.4.6-.3 1.3-.5 2.1-.5 1.4 0 2.5.5 3.5 1.5s1.4 2.2 1.4 3.6-.5 2.6-1.5 3.6-2.1 1.5-3.5 1.5c-.8 0-1.5-.2-2.1-.5-.6-.3-1.2-.8-1.7-1.5v1.8h-1.1zm5-1c.7 0 1.3-.2 1.9-.5.6-.3 1-.8 1.4-1.4.3-.6.5-1.3.5-1.9 0-.7-.2-1.3-.5-2-.3-.6-.8-1.1-1.4-1.4-.6-.3-1.2-.5-1.9-.5s-1.3.2-1.9.5c-.6.3-1.1.8-1.4 1.4-.3.6-.5 1.2-.5 2 0 1.1.4 2 1.1 2.8.7.7 1.6 1 2.7 1z" fill="#fff"/><g class="logo-arrows"><path class="logo-arrow logo-arrow--hours" fill="#fff" d="M122.488 38.313l1.856 2.357-12.021 9.466-1.856-2.357z"/><path class="logo-arrow logo-arrow--minutes" fill="#fff" d="M94.094 26.966l2.357-1.856 18.252 23.179-2.357 1.856z"/></g></svg>